<?xml version="1.0" encoding="utf-8"?>
<!-- Generator: Adobe Illustrator 26.0.1, SVG Export Plug-In . SVG Version: 6.00 Build 0)  -->
<svg version="1.1" id="Layer_1" xmlns="http://www.w3.org/2000/svg" xmlns:xlink="http://www.w3.org/1999/xlink" x="0px" y="0px"
	 viewBox="0 0 800 80" style="enable-background:new 0 0 800 80;" xml:space="preserve">
<style type="text/css">
	.st0{fill:#FFFFFF;}
</style>
<g>
	<g>
		<path class="st0" d="M2.57,33.88c0-16.31,12.01-27.45,27.05-27.45c9.63,0,16.15,4.54,20.37,10.5l-5.57,3.1
			c-3.02-4.45-8.51-7.72-14.8-7.72c-11.38,0-20.21,8.91-20.21,21.56c0,12.57,8.83,21.56,20.21,21.56c6.29,0,11.78-3.18,14.8-7.72
			l5.65,3.1c-4.46,6.05-10.82,10.5-20.45,10.5C14.59,61.33,2.57,50.19,2.57,33.88z"/>
		<path class="st0" d="M55.06,41.12c0-11.14,7.32-20.13,19.02-20.13c11.7,0,19.02,8.99,19.02,20.13c0,11.14-7.32,20.21-19.02,20.21
			C62.38,61.33,55.06,52.26,55.06,41.12z M86.81,41.12c0-7.8-4.54-14.8-12.73-14.8s-12.81,7-12.81,14.8C61.27,49,65.88,56,74.08,56
			S86.81,49,86.81,41.12z"/>
		<path class="st0" d="M147.96,34.28c0-4.85-2.15-7.95-7.08-7.95c-3.98,0-8.19,2.86-10.18,5.89v28.16h-5.97v-26.1
			c0-4.85-2.07-7.95-7.08-7.95c-3.9,0-8.04,2.86-10.1,5.97v28.08h-5.97V21.95h5.97v5.57c1.59-2.47,6.76-6.52,12.41-6.52
			c5.89,0,9.23,3.18,10.34,7.16c2.15-3.5,7.32-7.16,12.89-7.16c7,0,10.74,3.9,10.74,11.62v27.77h-5.97V34.28z"/>
		<path class="st0" d="M210.98,34.28c0-4.85-2.15-7.95-7.08-7.95c-3.98,0-8.19,2.86-10.18,5.89v28.16h-5.97v-26.1
			c0-4.85-2.07-7.95-7.08-7.95c-3.9,0-8.04,2.86-10.1,5.97v28.08h-5.97V21.95h5.97v5.57c1.59-2.47,6.76-6.52,12.41-6.52
			c5.89,0,9.23,3.18,10.34,7.16c2.15-3.5,7.32-7.16,12.89-7.16c7,0,10.74,3.9,10.74,11.62v27.77h-5.97V34.28z"/>
		<path class="st0" d="M244.32,20.99c11.62,0,18.46,9.07,18.46,20.61v1.51h-31.11c0.48,7.24,5.57,13.29,13.84,13.29
			c4.37,0,8.83-1.75,11.85-4.85l2.86,3.9c-3.82,3.82-8.99,5.89-15.28,5.89c-11.38,0-19.57-8.19-19.57-20.21
			C225.39,29.99,233.34,20.99,244.32,20.99z M231.67,38.74h25.22c-0.08-5.73-3.9-12.81-12.65-12.81
			C236.05,25.93,231.99,32.85,231.67,38.74z"/>
		<path class="st0" d="M271.09,21.95h5.97v6.21c3.1-4.06,7.56-7,12.81-7v6.13c-0.71-0.16-1.43-0.24-2.39-0.24
			c-3.66,0-8.67,3.02-10.42,6.13v27.21h-5.97V21.95z"/>
		<path class="st0" d="M312.24,20.99c7,0,11.14,2.86,14.08,6.68l-3.98,3.66c-2.55-3.5-5.81-5.01-9.79-5.01
			c-8.19,0-13.29,6.28-13.29,14.8S304.36,56,312.56,56c3.98,0,7.24-1.59,9.79-5.01l3.98,3.66c-2.94,3.82-7.08,6.68-14.08,6.68
			c-11.46,0-19.17-8.75-19.17-20.21C293.06,29.75,300.78,20.99,312.24,20.99z"/>
		<path class="st0" d="M331.98,11.45c0-2.23,1.83-3.98,3.98-3.98c2.23,0,4.06,1.75,4.06,3.98s-1.83,4.06-4.06,4.06
			C333.81,15.51,331.98,13.67,331.98,11.45z M333.01,21.95h5.97v38.43h-5.97V21.95z"/>
		<path class="st0" d="M373.36,56c-3.18,3.5-7.56,5.33-12.73,5.33c-6.52,0-13.44-4.38-13.44-12.73c0-8.59,6.92-12.65,13.44-12.65
			c5.25,0,9.63,1.67,12.73,5.25v-6.92c0-5.17-4.14-8.11-9.7-8.11c-4.62,0-8.36,1.67-11.78,5.33l-2.78-4.14
			c4.14-4.3,9.07-6.37,15.36-6.37c8.11,0,14.88,3.66,14.88,12.97v26.41h-5.97V56z M373.36,45.02c-2.31-3.18-6.36-4.78-10.58-4.78
			c-5.57,0-9.47,3.5-9.47,8.44c0,4.85,3.9,8.35,9.47,8.35c4.22,0,8.27-1.59,10.58-4.77V45.02z"/>
		<path class="st0" d="M389.88,7.31h5.97v53.07h-5.97V7.31z"/>
		<path class="st0" d="M428.31,7.31h5.97v20.45c3.1-4.22,7.72-6.77,12.97-6.77c10.03,0,17.11,7.96,17.11,20.21
			c0,12.49-7.08,20.13-17.11,20.13c-5.41,0-10.1-2.78-12.97-6.68v5.73h-5.97V7.31z M445.74,56c7.8,0,12.41-6.29,12.41-14.8
			s-4.62-14.88-12.41-14.88c-4.7,0-9.39,2.86-11.46,6.21v17.42C436.35,53.3,441.04,56,445.74,56z"/>
		<path class="st0" d="M474.13,70.64c2.63,0,4.37-0.88,5.73-4.06l2.55-5.81l-16.07-38.83h6.45l12.81,31.51l12.73-31.51h6.52
			l-19.25,46.23c-2.31,5.57-6.21,7.72-11.3,7.8c-1.27,0-3.26-0.24-4.37-0.56l0.95-5.41C471.74,70.4,473.17,70.64,474.13,70.64z"/>
		<path class="st0" d="M545.33,45.58l-4.61,4.93v9.87h-10.1V7.31h10.1v31.75l14.56-17.11h12.41l-15.2,17.42l15.67,21h-12.65
			L545.33,45.58z"/>
		<path class="st0" d="M598.11,37.14c0-5.33-2.78-7.16-7.08-7.16c-3.98,0-7.08,2.23-8.75,4.54v25.86h-10.1V21.95h10.1v5.01
			c2.47-2.94,7.16-5.97,13.45-5.97c8.43,0,12.49,4.78,12.49,12.25v27.13h-10.11V37.14z"/>
		<path class="st0" d="M642.7,37.14c0-5.33-2.78-7.16-7.08-7.16c-3.98,0-7.08,2.23-8.75,4.54v25.86h-10.1V21.95h10.1v5.01
			c2.47-2.94,7.16-5.97,13.44-5.97c8.43,0,12.49,4.78,12.49,12.25v27.13h-10.1V37.14z"/>
		<path class="st0" d="M679.38,20.99c7.88,0,12.65,3.42,15.2,6.92l-6.6,6.21c-1.83-2.7-4.61-4.14-8.11-4.14
			c-6.13,0-10.42,4.45-10.42,11.14c0,6.68,4.3,11.22,10.42,11.22c3.5,0,6.29-1.59,8.11-4.14l6.6,6.13c-2.55,3.58-7.32,7-15.2,7
			c-11.85,0-20.37-8.36-20.37-20.21C659.02,29.35,667.53,20.99,679.38,20.99z"/>
		<path class="st0" d="M703.66,50.83V30.78h-6.36v-8.83h6.36v-10.5h10.18v10.5h7.8v8.83h-7.8v17.35c0,2.39,1.27,4.22,3.5,4.22
			c1.51,0,2.94-0.56,3.5-1.11l2.15,7.64c-1.51,1.35-4.22,2.47-8.43,2.47C707.48,61.33,703.66,57.67,703.66,50.83z"/>
	</g>
	<g>
		<rect x="737.54" y="4.03" class="st0" width="27.85" height="27.85"/>
		<rect x="737.54" y="35.21" class="st0" width="27.85" height="27.85"/>
		<rect x="768.72" y="34.94" class="st0" width="27.85" height="27.85"/>
	</g>
</g>
</svg>
